<!DOCTYPE svg PUBLIC "-//W3C//DTD SVG 1.1//EN" "http://www.w3.org/Graphics/SVG/1.1/DTD/svg11.dtd">
<!-- Uploaded to: SVG Repo, www.svgrepo.com, Transformed by: SVG Repo Mixer Tools -->
<svg height="64px" width="64px" version="1.1" id="Capa_1" xmlns="http://www.w3.org/2000/svg" xmlns:xlink="http://www.w3.org/1999/xlink" viewBox="0 0 16 16" xml:space="preserve" fill="#d4d4d2" stroke="#d4d4d2">
<g id="SVGRepo_bgCarrier" stroke-width="0"/>
<g id="SVGRepo_tracerCarrier" stroke-linecap="round" stroke-linejoin="round"/>
<g id="SVGRepo_iconCarrier"> <g> <path style="fill:#d4d4d2;" d="M16,9c0,0.553-0.447,1-1,1H1c-0.553,0-1-0.447-1-1V7c0-0.552,0.447-1,1-1h14c0.553,0,1,0.448,1,1V9z "/> <path style="fill:#d4d4d2;" d="M7,4C6.447,4,6,3.553,6,3V1c0-0.553,0.447-1,1-1h2c0.553,0,1,0.447,1,1v2c0,0.553-0.447,1-1,1H7z"/> <path style="fill:#d4d4d2;" d="M7,16c-0.553,0-1-0.447-1-1v-2c0-0.553,0.447-1,1-1h2c0.553,0,1,0.447,1,1v2c0,0.553-0.447,1-1,1H7z "/> </g> </g>
</svg>