<svg width="62" height="62" viewBox="0 0 62 62" fill="none" xmlns="http://www.w3.org/2000/svg">
<g filter="url(#filter0_b_2_178)">
<rect x="0.5" y="0.5" width="61" height="61" rx="30.5" fill="#D4D4D2" stroke="url(#paint0_linear_2_178)"/>
<path d="M22.814 24.6V26.938H20.546V29.416H22.814V31.74H25.446V29.416H27.7V26.938H25.446V24.6H22.814Z" fill="black"/>
<path d="M34.504 34.29H40.846V32.008H34.504V34.29Z" fill="black"/>
<path d="M33.7821 17C35.3103 17 36.3446 18.5574 35.7518 19.9659L26.1876 42.6919C25.854 43.4845 25.0778 44 24.2179 44V44C22.6897 44 21.6554 42.4426 22.2482 41.0341L31.8124 18.3081C32.146 17.5155 32.9222 17 33.7821 17V17Z" fill="#1C1C1C" style="mix-blend-mode:overlay"/>
</g>
<defs>
<filter id="filter0_b_2_178" x="-12" y="-12" width="86" height="86" filterUnits="userSpaceOnUse" color-interpolation-filters="sRGB">
<feFlood flood-opacity="0" result="BackgroundImageFix"/>
<feGaussianBlur in="BackgroundImageFix" stdDeviation="6"/>
<feComposite in2="SourceAlpha" operator="in" result="effect1_backgroundBlur_2_178"/>
<feBlend mode="normal" in="SourceGraphic" in2="effect1_backgroundBlur_2_178" result="shape"/>
</filter>
<linearGradient id="paint0_linear_2_178" x1="-5" y1="-5.68333" x2="32.8449" y2="60.9522" gradientUnits="userSpaceOnUse">
<stop stop-color="white" stop-opacity="0.85"/>
<stop offset="1" stop-color="white" stop-opacity="0.17"/>
</linearGradient>
</defs>
</svg>
